#!OML:ASF X:\für Bonn\!DataBase\2005_08_12_Daniel\c3d\Daniel.ASF
:FULLY-SPECIFIED
:DEGREES
61
root 1.09971 17.291 1.13084 169.573 -2.30382 -179.033
lowerback 33.0646 -0.0448259 5.47045
upperback 10.599 -1.67241 -1.16649
thorax -5.3285 -2.05665 -3.44077
lowerneck 6.38621 1.42565 -4.70968
upperneck 17.3906 -0.430286 2.80851
head 4.68716 -1.08845 1.72552
rclavicle -4.17448e-015 1.90833e-014
rhumerus -24.4989 19.908 -92.914
rradius 70.5336
rwrist -52.5048
rhand -15.9841 8.63302
rfingers 7.12502
rthumb 10.2155 -21.0989
lclavicle -4.17448e-015 1.90833e-014
lhumerus -31.237 28.7002 79.0775
lradius 32.7093
lwrist -17.708
lhand -11.4972 -6.0715
lfingers 7.12502
lthumb 14.5415 23.3988
rfemur -9.12899 2.45569 20.7862
rtibia 31.9633
rfoot -14.5434 -5.47877
rtoes -9.64135
lfemur -13.0276 -3.53483 -15.4353
ltibia 44.0674
lfoot -20.2629 5.85668
ltoes -12.4431
62
root 1.08951 17.2843 1.13805 169.78 -2.23614 -179.028
lowerback 33.4801 0.00427139 5.51237
upperback 10.7832 -1.68676 -1.20905
thorax -5.2825 -2.09781 -3.49256
lowerneck 6.1155 1.34929 -4.78063
upperneck 17.1304 -0.467582 3.00036
head 4.64472 -1.07104 1.80545
rclavicle 1.66979e-014 1.78906e-014
rhumerus -23.7085 19.8159 -92.6123
rradius 70.4929
rwrist -51.8915
rhand -16.039 9.04968
rfingers 7.12502
rthumb 10.1625 -20.6849
lclavicle 1.66979e-014 1.78906e-014
lhumerus -31.1282 28.9366 79.0223
lradius 32.6163
lwrist -18.1482
lhand -11.3398 -6.03406
lfingers 7.12502
lthumb 14.6931 23.4253
rfemur -9.58253 2.11209 20.6961
rtibia 32.2832
rfoot -14.564 -5.04921
rtoes -9.74053
lfemur -13.3534 -3.22041 -15.4233
ltibia 44.2099
lfoot -20.4179 5.81653
ltoes -12.071
63
root 1.07918 17.2757 1.15056 169.971 -2.1816 -179.034
lowerback 33.9941 0.049044 5.54694
upperback 10.9285 -1.70064 -1.26024
thorax -5.31293 -2.13955 -3.54534
lowerneck 5.91483 1.27004 -4.80306
upperneck 16.862 -0.513645 3.16286
head 4.58619 -1.05909 1.86553
rclavicle -6.85807e-015 -1.37161e-014
rhumerus -22.9369 19.7475 -92.322
rradius 70.4194
rwrist -51.3007
rhand -16.1176 9.57179
rfingers 7.12502
rthumb 10.0867 -20.1665
lclavicle -6.85807e-015 -1.37161e-014
lhumerus -31.0325 29.1496 78.9596
lradius 32.5006
lwrist -18.5446
lhand -11.2222 -5.97142
lfingers 7.12502
lthumb 14.8065 23.4796
rfemur -10.0842 1.81183 20.5938
rtibia 32.6818
rfoot -14.6136 -4.65202
rtoes -9.86763
lfemur -13.7229 -2.91422 -15.4167
ltibia 44.3783
lfoot -20.516 5.72308
ltoes -11.9214
64
root 1.06887 17.2625 1.16636 170.139 -2.1226 -179.047
lowerback 34.5526 0.117801 5.55139
upperback 11.0926 -1.7038 -1.28487
thorax -5.33363 -2.18197 -3.55684
lowerneck 5.62633 1.17251 -4.8304
upperneck 16.6188 -0.576812 3.31876
head 4.55519 -1.05465 1.92444
rclavicle 1.2921e-015 2.98177e-015
rhumerus -22.0731 19.6384 -91.9672
rradius 70.2703
rwrist -50.6415
rhand -16.1498 9.96686
rfingers 7.12502
rthumb 10.0556 -19.7729
lclavicle 1.2921e-015 2.98177e-015
lhumerus -30.8825 29.2697 78.983
lradius 32.389
lwrist -18.9089
lhand -11.1557 -6.0167
lfingers 7.12502
lthumb 14.8705 23.4296
rfemur -10.6115 1.44314 20.4835
rtibia 33.1418
rfoot -14.6726 -4.19367
rtoes -10.0497
lfemur -14.0986 -2.56344 -15.4072
ltibia 44.5908
lfoot -20.617 5.57189
ltoes -12.0471
65
root 1.05844 17.2464 1.18474 170.282 -2.08372 -179.048
lowerback 35.1977 0.174415 5.55468
upperback 11.2162 -1.71309 -1.30167
thorax -5.42589 -2.2281 -3.55335
lowerneck 5.42519 1.08819 -4.81807
upperneck 16.3586 -0.626804 3.43553
head 4.50024 -1.04613 1.96188
rclavicle -1.2921e-015 1.33186e-014
rhumerus -21.2423 19.5533 -91.6261
rradius 70.0869
rwrist -50.0475
rhand -16.2234 10.3114
rfingers 7.12502
rthumb 9.98459 -19.4318
lclavicle -1.2921e-015 1.33186e-014
lhumerus -30.7555 29.3033 79.0068
lradius 32.2803
lwrist -19.1756
lhand -11.0957 -6.16689
lfingers 7.12502
lthumb 14.9283 23.2751
rfemur -11.1643 1.08988 20.3833
rtibia 33.6695
rfoot -14.7376 -3.75227
rtoes -10.2361
lfemur -14.4888 -2.23838 -15.3733
ltibia 44.8472
lfoot -20.6964 5.33317
ltoes -12.1563
66
root 1.04758 17.2285 1.20377 170.416 -2.0367 -179.057
lowerback 35.9622 0.225167 5.58046
upperback 11.2431 -1.71656 -1.35101
thorax -5.53125 -2.27183 -3.58781
lowerneck 5.25138 0.991514 -4.76989
upperneck 16.0836 -0.699205 3.58129
head 4.43619 -1.0463 2.00199
rclavicle 1.18277e-014 3.37934e-015
rhumerus -20.4216 19.4717 -91.3083
rradius 69.9279
rwrist -49.4642
rhand -16.36 10.6501
rfingers 7.12502
rthumb 9.85285 -19.0994
lclavicle 1.18277e-014 3.37934e-015
lhumerus -30.6024 29.2315 79.0213
lradius 32.1757
lwrist -19.3867
lhand -11.0179 -6.26142
lfingers 7.12502
lthumb 15.0033 23.175
rfemur -11.7409 0.689556 20.2708
rtibia 34.2644
rfoot -14.8282 -3.25445
rtoes -10.2724
lfemur -14.9001 -1.88322 -15.3472
ltibia 45.161
lfoot -20.7735 5.07699
ltoes -12.3051
67
root 1.03591 17.2065 1.22225 170.532 -1.99842 -179.063
lowerback 36.6542 0.293964 5.58942
upperback 11.3613 -1.71307 -1.36835
thorax -5.63713 -2.31417 -3.59108
lowerneck 5.14135 0.89303 -4.70864
upperneck 15.7893 -0.77484 3.68702
head 4.3529 -1.05093 2.02498
rclavicle 7.15625e-015 4.17448e-015
rhumerus -19.5963 19.3936 -90.9521
rradius 69.7709
rwrist -48.8765
rhand -16.5077 10.8559
rfingers 7.12502
rthumb 9.71034 -18.9003
lclavicle 7.15625e-015 4.17448e-015
lhumerus -30.4198 29.1147 79.1002
lradius 32.0695
lwrist -19.5615
lhand -11.056 -6.38102
lfingers 7.12502
lthumb 14.9665 23.0582
rfemur -12.3306 0.321766 20.1629
rtibia 34.9165
rfoot -14.972 -2.7807
rtoes -10.4619
lfemur -15.3333 -1.48732 -15.3184
ltibia 45.5434
lfoot -20.856 4.75383
ltoes -12.5952
68
root 1.02347 17.1829 1.23901 170.666 -1.97272 -179.089
lowerback 37.3102 0.35489 5.57207
upperback 11.4854 -1.73304 -1.39923
thorax -5.7228 -2.36709 -3.58781
lowerneck 5.11829 0.811458 -4.63156
upperneck 15.412 -0.826042 3.79924
head 4.22196 -1.0421 2.04648
rclavicle 2.78299e-015 2.78299e-015
rhumerus -18.7705 19.3431 -90.6311
rradius 69.6029
rwrist -48.2775
rhand -16.7224 11.0318
rfingers 7.12502
rthumb 9.50322 -18.7339
lclavicle 2.78299e-015 2.78299e-015
lhumerus -30.2096 28.9654 79.1601
lradius 31.9689
lwrist -19.6523
lhand -11.0835 -6.6157
lfingers 7.12502
lthumb 14.94 22.8255
rfemur -12.9704 -0.0783864 20.0334
rtibia 35.6343
rfoot -15.1211 -2.30239
rtoes -10.578
lfemur -15.8149 -1.12129 -15.3167
ltibia 45.9935
lfoot -20.9539 4.42757
ltoes -12.7501
69
root 1.00991 17.1563 1.25506 170.764 -1.95476 -179.094
lowerback 38.026 0.402904 5.61599
upperback 11.5881 -1.74395 -1.43744
thorax -5.84609 -2.41513 -3.62502
lowerneck 5.15544 0.711832 -4.51639
upperneck 15.0395 -0.90824 3.8933
head 4.08332 -1.05081 2.05374
rclavicle -1.19271e-015 3.57812e-015
rhumerus -18.0187 19.2522 -90.3148
rradius 69.4753
rwrist -47.7503
rhand -16.9662 11.1462
rfingers 7.12502
rthumb 9.268 -18.6301
lclavicle -1.19271e-015 3.57812e-015
lhumerus -29.9906 28.6004 79.2632
lradius 31.9274
lwrist -19.5278
lhand -11.0694 -6.76198
lfingers 7.12502
lthumb 14.9536 22.6782
rfemur -13.6024 -0.500814 19.9177
rtibia 36.4134
rfoot -15.3178 -1.7844
rtoes -10.7044
lfemur -16.3068 -0.688886 -15.299
ltibia 46.5217
lfoot -21.0601 4.07431
ltoes -12.8752
70
root 0.996174 17.1261 1.26999 170.88 -1.94864 -179.117
lowerback 38.7164 0.457761 5.62316
upperback 11.6887 -1.75821 -1.45888
thorax -5.95849 -2.46483 -3.6248
lowerneck 5.16862 0.619361 -4.43235
upperneck 14.6966 -0.985271 3.99899
head 3.96118 -1.06017 2.07108
rclavicle -1.07344e-014 -9.74045e-015
rhumerus -17.3129 19.1601 -89.9819
rradius 69.3649
rwrist -47.266
rhand -17.1677 11.2447
rfingers 7.12502
rthumb 9.07348 -18.5401
lclavicle -1.07344e-014 -9.74045e-015
lhumerus -29.8133 28.2582 79.3898
lradius 31.953
lwrist -19.4851
lhand -11.0863 -6.88065
lfingers 7.12502
lthumb 14.9374 22.5607
rfemur -14.295 -0.899722 19.7778
rtibia 37.2684
rfoot -15.5557 -1.26833
rtoes -10.6558
lfemur -16.8501 -0.277705 -15.3091
ltibia 47.1159
lfoot -21.2113 3.7274
ltoes -12.8691
71
root 0.981606 17.0925 1.28561 171.001 -1.96069 -179.142
lowerback 39.4253 0.492338 5.63689
upperback 11.7629 -1.78826 -1.49152
thorax -6.10316 -2.51967 -3.63245
lowerneck 5.26996 0.538616 -4.31442
upperneck 14.3049 -1.04551 4.07807
head 3.8043 -1.06237 2.07252
rclavicle 8.34896e-015 -2.5842e-015
rhumerus -16.7099 19.1175 -89.6277
rradius 69.3375
rwrist -46.8713
rhand -17.4126 11.3295
rfingers 7.12502
rthumb 8.83719 -18.4655
lclavicle 8.34896e-015 -2.5842e-015
lhumerus -29.6648 27.944 79.4944
lradius 32.0202
lwrist -19.3801
lhand -11.1269 -7.04895
lfingers 7.12502
lthumb 14.8983 22.3953
rfemur -15.0222 -1.29965 19.6374
rtibia 38.1822
rfoot -15.8347 -0.769291
rtoes -10.8888
lfemur -17.4426 0.094076 -15.3293
ltibia 47.7864
lfoot -21.3661 3.3578
ltoes -12.8637
72
root 0.966961 17.0554 1.30042 171.109 -1.96084 -179.148
lowerback 40.1404 0.52893 5.68992
upperback 11.8445 -1.80575 -1.52357
thorax -6.23483 -2.56927 -3.66455
lowerneck 5.32753 0.442255 -4.21939
upperneck 13.9355 -1.13013 4.19336
head 3.66674 -1.07715 2.09059
rclavicle -1.17283e-014 -7.95139e-015
rhumerus -16.0896 19.053 -89.2703
rradius 69.2774
rwrist -46.5113
rhand -17.6615 11.4737
rfingers 7.12502
rthumb 8.59703 -18.3313
lclavicle -1.17283e-014 -7.95139e-015
lhumerus -29.4889 27.5024 79.649
lradius 32.1418
lwrist -19.1746
lhand -11.1701 -7.19872
lfingers 7.12502
lthumb 14.8566 22.2486
rfemur -15.7769 -1.71069 19.5215
rtibia 39.1661
rfoot -16.159 -0.252731
rtoes -11.1027
lfemur -18.0559 0.504219 -15.3164
ltibia 48.5178
lfoot -21.5626 2.93661
ltoes -12.7622
73
root 0.951758 17.0144 1.31498 171.181 -1.99108 -179.168
lowerback 40.8734 0.565129 5.73854
upperback 11.9373 -1.83096 -1.53641
thorax -6.35371 -2.62569 -3.67044
lowerneck 5.44129 0.353102 -4.15524
upperneck 13.5194 -1.20291 4.29966
head 3.50302 -1.08872 2.11082
rclavicle -9.74045e-015 -3.71727e-014
rhumerus -15.4388 19.0013 -88.8393
rradius 69.1608
rwrist -46.2008
rhand -17.8574 11.6514
rfingers 7.12502
rthumb 8.40799 -18.1612
lclavicle -9.74045e-015 -3.71727e-014
lhumerus -29.3254 27.0229 79.8549
lradius 32.3757
lwrist -18.9458
lhand -11.175 -7.26449
lfingers 7.12502
lthumb 14.8519 22.1832
rfemur -16.5141 -2.10386 19.3853
rtibia 40.2088
rfoot -16.5149 0.232045
rtoes -11.2209
lfemur -18.6676 0.871472 -15.3313
ltibia 49.3168
lfoot -21.7806 2.5406
ltoes -12.6124
